<svg xmlns="http://www.w3.org/2000/svg" height="1215.4" viewBox="0 0 1509.508 1215.414" width="1509.5"><defs><marker id="a" orient="auto" overflow="visible"><path d="M10 0l4-4L0 0l14 4z" fill-rule="evenodd" stroke="#000" stroke-width=".8pt"/></marker></defs><path d="M10 35.728h392.63M10.5 10.5h391.86v231.58H10.5z" stroke="#000" fill="#fef8c8"/><text font-size="14.667" y="18.953" x="138.815" font-family="sans-serif" word-spacing="0" letter-spacing="0" transform="translate(53.892 10.5)"><tspan font-weight="bold" y="18.953" x="138.815" font-family="Roboto">Object</tspan></text><path d="M184.042 17.496a6.356 6.356 0 0 0-6.356 6.356 6.356 6.356 0 0 0 6.356 6.357 6.356 6.356 0 0 0 6.357-6.357 6.356 6.356 0 0 0-6.357-6.356zm-2.129 2.217h4.258v.672h-1.065v6.935h1.065v.672h-4.258v-.672h1.059v-6.935h-1.059z" fill="#00f"/><g transform="translate(10.5 186.867)"><circle cy="42.771" cx="14.855" r="4.354" fill="#00df00"/><text font-size="10.667" y="45.874" x="23.543" font-family="sans-serif" word-spacing="0" letter-spacing="0"><tspan y="45.874" x="23.543" font-family="Roboto">[[OwnPropertyKeys]](): List&lt;String|Symbol&gt;</tspan></text></g><g transform="translate(10.5 61.814)"><circle cx="14.855" cy="42.771" r="4.354" fill="#00df00"/><text font-size="10.667" y="45.874" x="23.543" font-family="sans-serif" word-spacing="0" letter-spacing="0"><tspan y="45.874" x="23.543" font-family="Roboto">[[PreventExtensions]](): Boolean</tspan></text></g><g transform="translate(10.5 26.084)"><circle cy="42.771" cx="14.855" r="4.354" fill="#00df00"/><text font-size="10.667" y="45.874" x="23.543" font-family="sans-serif" word-spacing="0" letter-spacing="0"><tspan y="45.874" x="23.543" font-family="Roboto">[[SetPrototypeOf]](Object|Null): Boolean</tspan></text></g><g transform="translate(10.5 43.949)"><circle cx="14.855" cy="42.771" r="4.354" fill="#00df00"/><text font-size="10.667" y="45.874" x="23.543" font-family="sans-serif" word-spacing="0" letter-spacing="0"><tspan y="45.874" x="23.543" font-family="Roboto">[[IsExtensible]](): Boolean</tspan></text></g><g transform="translate(10.5 168.997)"><circle cy="42.771" cx="14.855" r="4.354" fill="#00df00"/><text font-size="10.667" y="45.874" x="23.543" font-family="sans-serif" word-spacing="0" letter-spacing="0"><tspan y="45.874" x="23.543" font-family="Roboto">[[Delete]](String|Symbol): Boolean</tspan></text></g><g transform="translate(10.5 151.137)"><circle cx="14.855" cy="42.771" r="4.354" fill="#00df00"/><text font-size="10.667" y="45.874" x="23.543" font-family="sans-serif" word-spacing="0" letter-spacing="0"><tspan y="45.874" x="23.543" font-family="Roboto">[[Set]](String|Symbol, any, any): Boolean</tspan></text></g><g transform="translate(10.5 115.407)"><circle cy="42.771" cx="14.855" r="4.354" fill="#00df00"/><text font-size="10.667" y="45.874" x="23.543" font-family="sans-serif" word-spacing="0" letter-spacing="0"><tspan y="45.874" x="23.543" font-family="Roboto">[[HasProperty]](String|Symbol): Boolean</tspan></text></g><g transform="translate(10.5 133.277)"><circle cx="14.855" cy="42.771" r="4.354" fill="#00df00"/><text font-size="10.667" y="45.874" x="23.543" font-family="sans-serif" word-spacing="0" letter-spacing="0"><tspan y="45.874" x="23.543" font-family="Roboto">[[Get]](String|Symbol, any): any</tspan></text></g><g transform="translate(10.5 79.678)"><circle cy="42.771" cx="14.855" r="4.354" fill="#00df00"/><text font-size="10.667" y="45.874" x="23.543" font-family="sans-serif" word-spacing="0" letter-spacing="0"><tspan y="45.874" x="23.543" font-family="Roboto">[[GetOwnProperty]](String|Symbol): PropertyDescriptor</tspan></text></g><g transform="translate(10.5 97.543)"><circle cx="14.855" cy="42.771" r="4.354" fill="#00df00"/><text font-size="10.667" y="45.874" x="23.543" font-family="sans-serif" word-spacing="0" letter-spacing="0"><tspan y="45.874" x="23.543" font-family="Roboto">[[DefineOwnProperty]](String|Symbol, PropertyDescriptor): Boolean</tspan></text></g><g transform="translate(10.5 8.22)"><circle cy="42.771" cx="14.855" r="4.354" fill="#00df00"/><text font-size="10.667" y="45.874" x="23.543" font-family="sans-serif" word-spacing="0" letter-spacing="0"><tspan y="45.874" x="23.543" font-family="Roboto">[[GetPrototypeOf]](): Object|Null</tspan></text></g><path d="M100.913 398.239h210.8m-210.3-25.409h210.03v49.754h-210.03z" stroke="#000" fill="#fef8c8"/><text font-size="14.667" y="18.953" x="138.815" font-family="sans-serif" word-spacing="0" letter-spacing="0" transform="translate(25.605 372.83)"><tspan font-weight="bold" y="18.953" x="138.815" font-family="Roboto">function object</tspan></text><path d="M155.755 379.826a6.356 6.356 0 0 0-6.356 6.356 6.356 6.356 0 0 0 6.356 6.357 6.356 6.356 0 0 0 6.357-6.357 6.356 6.356 0 0 0-6.357-6.356zm-2.129 2.217h4.258v.672h-1.065v6.935h1.065v.672h-4.258v-.672h1.059v-6.935h-1.059z" fill="#00f"/><g transform="translate(101.413 367.776)"><circle cy="42.771" cx="14.855" r="4.354" fill="#00df00"/><text font-size="10.667" y="45.874" x="23.543" font-family="sans-serif" word-spacing="0" letter-spacing="0"><tspan y="45.874" x="23.543" font-family="Roboto">[[Call]](List&lt;any&gt;): any</tspan></text></g><path d="M100.913 578.749h210.8m-210.3-25.409h210.03v51.203h-210.03z" stroke="#000" fill="#fef8c8"/><text font-size="14.667" y="18.953" x="138.815" font-family="sans-serif" word-spacing="0" letter-spacing="0" transform="translate(37.056 553.34)"><tspan font-weight="bold" y="18.953" x="138.815" font-family="Roboto">constructor</tspan></text><path d="M167.206 560.336a6.356 6.356 0 0 0-6.355 6.356 6.356 6.356 0 0 0 6.355 6.357 6.356 6.356 0 0 0 6.357-6.357 6.356 6.356 0 0 0-6.357-6.356zm-2.129 2.217h4.258v.672h-1.065v6.935h1.065v.672h-4.258v-.672h1.059v-6.935h-1.059z" fill="#00f"/><g transform="translate(101.413 549.01)"><circle cx="14.855" cy="42.771" r="4.354" fill="#00df00"/><text font-size="10.667" y="45.874" x="23.543" font-family="sans-serif" word-spacing="0" letter-spacing="0"><tspan y="45.874" x="23.543" font-family="Roboto">[[Constructor]](List&lt;any&gt;): Object</tspan></text></g><path d="M464.154 76.529h392.63m-392.63-40.62h392.63M464.654 10.5h391.86v272.38h-391.86z" stroke="#000" fill="#fef8c8"/><g transform="translate(464.654 12.673)"><g transform="translate(0 213.67)"><circle cy="42.771" cx="14.855" r="4.354" fill="#00df00"/><text font-size="10.667" y="45.874" x="23.543" font-family="sans-serif" word-spacing="0" letter-spacing="0"><tspan y="45.874" x="23.543" font-family="Roboto">[[OwnPropertyKeys]](): List&lt;String|Symbol&gt;</tspan></text></g><g transform="translate(0 88.616)"><circle cx="14.855" cy="42.771" r="4.354" fill="#00df00"/><text font-size="10.667" y="45.874" x="23.543" font-family="sans-serif" word-spacing="0" letter-spacing="0"><tspan y="45.874" x="23.543" font-family="Roboto">[[PreventExtensions]](): Boolean</tspan></text></g><g transform="translate(0 52.887)"><circle cy="42.771" cx="14.855" r="4.354" fill="#00df00"/><text font-size="10.667" y="45.874" x="23.543" font-family="sans-serif" word-spacing="0" letter-spacing="0"><tspan y="45.874" x="23.543" font-family="Roboto">[[SetPrototypeOf]](Object|Null): Boolean</tspan></text></g><g transform="translate(0 70.752)"><circle cx="14.855" cy="42.771" r="4.354" fill="#00df00"/><text font-size="10.667" y="45.874" x="23.543" font-family="sans-serif" word-spacing="0" letter-spacing="0"><tspan y="45.874" x="23.543" font-family="Roboto">[[IsExtensible]](): Boolean</tspan></text></g><g transform="translate(0 195.8)"><circle cy="42.771" cx="14.855" r="4.354" fill="#00df00"/><text font-size="10.667" y="45.874" x="23.543" font-family="sans-serif" word-spacing="0" letter-spacing="0"><tspan y="45.874" x="23.543" font-family="Roboto">[[Delete]](String|Symbol): Boolean</tspan></text></g><g transform="translate(0 177.94)"><circle cx="14.855" cy="42.771" r="4.354" fill="#00df00"/><text font-size="10.667" y="45.874" x="23.543" font-family="sans-serif" word-spacing="0" letter-spacing="0"><tspan y="45.874" x="23.543" font-family="Roboto">[[Set]](String|Symbol, any, any): Boolean</tspan></text></g><g transform="translate(0 142.21)"><circle cy="42.771" cx="14.855" r="4.354" fill="#00df00"/><text font-size="10.667" y="45.874" x="23.543" font-family="sans-serif" word-spacing="0" letter-spacing="0"><tspan y="45.874" x="23.543" font-family="Roboto">[[HasProperty]](String|Symbol): Boolean</tspan></text></g><g transform="translate(0 160.08)"><circle cx="14.855" cy="42.771" r="4.354" fill="#00df00"/><text font-size="10.667" y="45.874" x="23.543" font-family="sans-serif" word-spacing="0" letter-spacing="0"><tspan y="45.874" x="23.543" font-family="Roboto">[[Get]](String|Symbol, any): any</tspan></text></g><circle transform="translate(0 106.48)" cy="42.771" cx="14.855" r="4.354" fill="#00df00"/><text transform="translate(0 106.48)" font-size="10.667" y="45.874" x="23.543" font-family="sans-serif" word-spacing="0" letter-spacing="0"><tspan y="45.874" x="23.543" font-family="Roboto">[[GetOwnProperty]](String|Symbol): PropertyDescriptor</tspan></text><g transform="translate(0 124.35)"><circle cx="14.855" cy="42.771" r="4.354" fill="#00df00"/><text font-size="10.667" y="45.874" x="23.543" font-family="sans-serif" word-spacing="0" letter-spacing="0"><tspan y="45.874" x="23.543" font-family="Roboto">[[DefineOwnProperty]](String|Symbol, PropertyDescriptor): Boolean</tspan></text></g><g transform="translate(0 35.022)"><circle cy="42.771" cx="14.855" r="4.354" fill="#00df00"/><text font-size="10.667" y="45.874" x="23.543" font-family="sans-serif" word-spacing="0" letter-spacing="0"><tspan y="45.874" x="23.543" font-family="Roboto">[[GetPrototypeOf]](): Object|Null</tspan></text></g></g><text font-size="10.667" y="45.874" x="23.543" font-family="sans-serif" word-spacing="0" letter-spacing="0" transform="translate(464.654 4.72)"><tspan y="45.874" x="23.543" font-family="Roboto">[[Prototype]]: Object|Null</tspan></text><path fill="#ff0" d="M479.621 42.352l5.028 5.027-5.253 5.253-5.028-5.027z"/><text font-size="10.667" y="45.874" x="23.543" font-family="sans-serif" word-spacing="0" letter-spacing="0" transform="translate(464.654 22.381)"><tspan y="45.874" x="23.543" font-family="Roboto">[[Extensible]]: Boolean</tspan></text><path fill="#ff0" d="M479.621 60.013l5.028 5.027-5.253 5.253-5.028-5.027z"/><text transform="translate(479.799 10.5)" font-size="14.667" y="18.953" x="138.815" font-family="sans-serif" word-spacing="0" letter-spacing="0"><tspan font-weight="bold" y="18.953" x="138.815" font-family="Roboto">ordinary object</tspan></text><path d="M609.959 17.496a6.356 6.356 0 0 0-6.357 6.357 6.356 6.356 0 0 0 6.357 6.356 6.356 6.356 0 0 0 6.356-6.356 6.356 6.356 0 0 0-6.356-6.357zm.541 2.033c.495 0 1.011.06 1.547.18s1.102.3 1.701.541v2.049h-.709c-.145-.7-.41-1.222-.793-1.569-.383-.35-.889-.525-1.517-.525-.812 0-1.415.3-1.809.898-.394.596-.592 1.513-.592 2.752 0 1.24.198 2.157.592 2.752.394.596 1.002.893 1.82.893.555 0 1.006-.154 1.356-.463.353-.309.611-.775.771-1.4h1.11c-.22.86-.615 1.497-1.184 1.914-.57.417-1.333.625-2.293.625-1.407 0-2.52-.386-3.338-1.16-.815-.778-1.223-1.832-1.223-3.16 0-1.333.408-2.385 1.223-3.159.819-.777 1.931-1.168 3.338-1.168z" fill="#00df00"/><path d="M588.86 372.47H732.3v27.131H588.86z" stroke="#000" fill="#fef8c8"/><text font-size="14.667" y="18.953" x="138.815" font-family="sans-serif" word-spacing="0" letter-spacing="0" transform="translate(487.162 372.47)"><tspan font-weight="bold" y="18.953" x="138.815" font-family="Roboto">exotic object</tspan></text><path d="M617.312 379.466a6.356 6.356 0 0 0-6.356 6.356 6.356 6.356 0 0 0 6.356 6.357 6.356 6.356 0 0 0 6.357-6.357 6.356 6.356 0 0 0-6.357-6.356zm-2.129 2.217h4.258v.672h-1.065v6.935h1.065v.672h-4.258v-.672h1.059v-6.935h-1.059z" fill="#00f"/><path d="M1302.95 10.385h179.15v25.639h-179.15z" stroke="#000" stroke-width=".77" fill="#fef8c8"/><text transform="translate(1213.69 10.5)" font-size="14.667" y="18.953" x="138.815" font-family="sans-serif" word-spacing="0" letter-spacing="0"><tspan font-weight="bold" y="18.953" x="138.815" font-family="Roboto">arrow function</tspan></text><path d="M1343.85 17.496a6.356 6.356 0 0 0-6.357 6.357 6.356 6.356 0 0 0 6.357 6.356 6.356 6.356 0 0 0 6.356-6.356 6.356 6.356 0 0 0-6.356-6.357zm.541 2.033c.495 0 1.011.06 1.547.18s1.102.3 1.701.541v2.049h-.709c-.145-.7-.41-1.222-.793-1.569-.383-.35-.889-.525-1.517-.525-.812 0-1.415.3-1.809.898-.394.596-.592 1.513-.592 2.752 0 1.24.198 2.157.592 2.752.394.596 1.002.893 1.82.893.555 0 1.006-.154 1.356-.463.353-.309.611-.775.771-1.4h1.11c-.22.86-.615 1.497-1.184 1.914-.57.417-1.333.625-2.293.625-1.407 0-2.52-.386-3.338-1.16-.815-.778-1.223-1.832-1.223-3.16 0-1.333.408-2.385 1.223-3.159.819-.777 1.931-1.168 3.338-1.168z" fill="#00df00"/><path d="M1285.6 114.635h213.65m-213.4-25.418h213.2v50.048h-213.2z" stroke="#000" stroke-width=".767" fill="#fef8c8"/><text transform="translate(1234.23 89.249)" font-size="14.667" y="18.953" x="138.815" font-family="sans-serif" word-spacing="0" letter-spacing="0"><tspan font-weight="bold" y="18.953" x="138.815" font-family="Roboto">function</tspan></text><path d="M1364.39 96.245a6.356 6.356 0 0 0-6.357 6.357 6.356 6.356 0 0 0 6.357 6.356 6.356 6.356 0 0 0 6.356-6.356 6.356 6.356 0 0 0-6.356-6.357zm.541 2.033c.495 0 1.011.06 1.547.18a10.92 10.92 0 0 1 1.701.54v2.05h-.709c-.145-.7-.41-1.223-.793-1.569-.383-.35-.888-.525-1.517-.525-.811 0-1.414.299-1.809.898-.394.595-.592 1.513-.592 2.752 0 1.24.198 2.157.592 2.752.395.595 1.002.893 1.82.893.555 0 1.006-.154 1.356-.463.353-.31.611-.775.771-1.4h1.11c-.22.859-.614 1.497-1.184 1.913-.57.417-1.333.625-2.293.625-1.406 0-2.519-.386-3.338-1.16-.815-.777-1.222-1.831-1.222-3.16 0-1.332.407-2.384 1.222-3.158.819-.778 1.932-1.168 3.338-1.168z" fill="#00df00"/><g transform="translate(1284 85.253)"><circle cx="14.855" cy="42.771" r="4.354" fill="#00df00"/><text font-size="10.667" y="45.874" x="23.543" font-family="sans-serif" word-spacing="0" letter-spacing="0"><tspan y="45.874" x="23.543" font-family="Roboto">[[Construct]](List&lt;any&gt;): Object</tspan></text></g><path d="M1285.6 217.878h213.65m-213.4-25.418h213.2v50.048h-213.2z" stroke="#000" stroke-width=".767" fill="#fef8c8"/><text transform="translate(1244.23 192.492)" font-size="14.667" y="18.953" x="138.815" font-family="sans-serif" word-spacing="0" letter-spacing="0"><tspan font-weight="bold" y="18.953" x="138.815" font-family="Roboto">class</tspan></text><path d="M1374.39 199.488a6.356 6.356 0 0 0-6.357 6.358 6.356 6.356 0 0 0 6.357 6.355 6.356 6.356 0 0 0 6.356-6.355 6.356 6.356 0 0 0-6.356-6.358zm.541 2.033c.495 0 1.011.06 1.547.18s1.102.3 1.701.541v2.049h-.709c-.145-.7-.41-1.222-.793-1.569-.383-.35-.888-.525-1.517-.525-.811 0-1.414.3-1.809.898-.394.596-.592 1.513-.592 2.752 0 1.24.198 2.157.592 2.752.395.596 1.002.893 1.82.893.555 0 1.006-.154 1.356-.463.353-.309.611-.775.771-1.4h1.11c-.22.86-.614 1.497-1.184 1.914-.57.417-1.333.625-2.293.625-1.406 0-2.519-.386-3.338-1.16-.815-.778-1.222-1.832-1.222-3.16 0-1.333.407-2.385 1.222-3.159.819-.777 1.932-1.168 3.338-1.168z" fill="#00df00"/><g transform="translate(1284 188.496)"><circle cy="42.771" cx="14.855" r="4.354" fill="#00df00"/><text font-size="10.667" y="45.874" x="23.543" font-family="sans-serif" word-spacing="0" letter-spacing="0"><tspan y="45.874" x="23.543" font-family="Roboto">[[Construct]](List&lt;any&gt;): Object</tspan></text></g><path d="M918.31 112.26h305.7m-305.7-76.35h305.7M918.81 10.5h304.93v128.95H918.81z" stroke="#000" fill="#fef8c8"/><g transform="translate(918.81 83.425)"><circle cy="42.771" cx="14.855" r="4.354" fill="#00df00"/><text font-size="10.667" y="45.874" x="23.543" font-family="sans-serif" word-spacing="0" letter-spacing="0"><tspan y="45.874" x="23.543" font-family="Roboto">[[Call]](List&lt;any&gt;): any</tspan></text></g><text font-size="10.667" y="45.874" x="23.543" font-family="sans-serif" word-spacing="0" letter-spacing="0" transform="translate(918.81 4.72)"><tspan y="45.874" x="23.543" font-family="Roboto">[[Environment]]: Lexical Environment</tspan></text><path fill="#ff0" d="M933.777 42.352l5.028 5.027-5.253 5.253-5.028-5.027z"/><text font-size="10.667" y="45.874" x="23.543" font-family="sans-serif" word-spacing="0" letter-spacing="0" transform="translate(918.81 21.99)"><tspan y="45.874" x="23.543" font-family="Roboto">[[FunctionKind]]: String</tspan></text><path fill="#ff0" d="M933.777 59.62l5.028 5.028-5.253 5.253-5.028-5.027z"/><text font-size="10.667" y="45.874" x="23.543" font-family="sans-serif" word-spacing="0" letter-spacing="0" transform="translate(918.81 39.435)"><tspan y="45.874" x="23.543" font-family="Roboto">[[Realm]]: Realm Record</tspan></text><path fill="#ff0" d="M933.777 77.067l5.028 5.027-5.253 5.253-5.028-5.027z"/><text font-size="10.667" y="45.874" x="23.543" font-family="sans-serif" word-spacing="0" letter-spacing="0" transform="translate(918.81 56.701)"><tspan y="45.874" x="23.543" font-family="Roboto">[[...]]: ...</tspan></text><path fill="#ff0" d="M933.777 94.333l5.028 5.027-5.253 5.253-5.028-5.027z"/><text transform="translate(850.35 10.5)" font-size="14.667" y="18.953" x="138.815" font-family="sans-serif" word-spacing="0" letter-spacing="0"><tspan font-weight="bold" font-style="italic" y="18.953" x="138.815" font-family="Roboto">ECMAScript function object</tspan></text><path d="M980.51 17.496a6.356 6.356 0 0 0-6.357 6.358 6.356 6.356 0 0 0 6.357 6.355 6.356 6.356 0 0 0 6.356-6.355 6.356 6.356 0 0 0-6.356-6.358zm.541 2.033c.495 0 1.011.061 1.547.18.536.12 1.102.3 1.701.541v2.05h-.709c-.145-.7-.41-1.222-.793-1.568-.383-.35-.889-.526-1.517-.526-.812 0-1.415.3-1.809.899-.394.595-.592 1.512-.592 2.752 0 1.239.198 2.156.592 2.752.394.595 1.002.892 1.82.892.555 0 1.006-.154 1.356-.463.353-.309.611-.775.771-1.4h1.11c-.22.86-.615 1.497-1.184 1.914-.57.417-1.333.625-2.293.625-1.407 0-2.52-.386-3.338-1.16-.815-.778-1.223-1.832-1.223-3.16 0-1.333.408-2.385 1.223-3.159.819-.777 1.931-1.168 3.338-1.168z" fill="#00df00"/><text font-size="8.704" y="11.343" x="608.997" font-family="sans-serif" word-spacing="0" letter-spacing="0" transform="translate(372.32 10.5)"><tspan font-family="Roboto" font-weight="bold" y="11.343" x="608.997" stroke-width="1.306" fill="green">A</tspan></text><path d="M874.85 617.169h392.63m-392.63-40.62h392.63M875.35 551.14h391.86v272.38H875.35z" stroke="#000" fill="#fef8c8"/><g transform="translate(875.35 553.313)"><g transform="translate(0 213.67)"><circle cy="42.771" cx="14.855" r="4.354" fill="#00df00"/><text font-size="10.667" y="45.874" x="23.543" font-family="sans-serif" word-spacing="0" letter-spacing="0"><tspan y="45.874" x="23.543" font-family="Roboto">[[OwnPropertyKeys]](): List&lt;String|Symbol&gt;</tspan></text></g><g transform="translate(0 88.616)"><circle cx="14.855" cy="42.771" r="4.354" fill="#00df00"/><text font-size="10.667" y="45.874" x="23.543" font-family="sans-serif" word-spacing="0" letter-spacing="0"><tspan y="45.874" x="23.543" font-family="Roboto">[[PreventExtensions]](): Boolean</tspan></text></g><g transform="translate(0 52.887)"><circle cy="42.771" cx="14.855" r="4.354" fill="#00df00"/><text font-size="10.667" y="45.874" x="23.543" font-family="sans-serif" word-spacing="0" letter-spacing="0"><tspan y="45.874" x="23.543" font-family="Roboto">[[SetPrototypeOf]](Object|Null): Boolean</tspan></text></g><g transform="translate(0 70.752)"><circle cx="14.855" cy="42.771" r="4.354" fill="#00df00"/><text font-size="10.667" y="45.874" x="23.543" font-family="sans-serif" word-spacing="0" letter-spacing="0"><tspan y="45.874" x="23.543" font-family="Roboto">[[IsExtensible]](): Boolean</tspan></text></g><g transform="translate(0 195.8)"><circle cy="42.771" cx="14.855" r="4.354" fill="#00df00"/><text font-size="10.667" y="45.874" x="23.543" font-family="sans-serif" word-spacing="0" letter-spacing="0"><tspan y="45.874" x="23.543" font-family="Roboto">[[Delete]](String|Symbol): Boolean</tspan></text></g><g transform="translate(0 177.94)"><circle cx="14.855" cy="42.771" r="4.354" fill="#00df00"/><text font-size="10.667" y="45.874" x="23.543" font-family="sans-serif" word-spacing="0" letter-spacing="0"><tspan y="45.874" x="23.543" font-family="Roboto">[[Set]](String|Symbol, any, any): Boolean</tspan></text></g><g transform="translate(0 142.21)"><circle cy="42.771" cx="14.855" r="4.354" fill="#00df00"/><text font-size="10.667" y="45.874" x="23.543" font-family="sans-serif" word-spacing="0" letter-spacing="0"><tspan y="45.874" x="23.543" font-family="Roboto">[[HasProperty]](String|Symbol): Boolean</tspan></text></g><g transform="translate(0 160.08)"><circle cx="14.855" cy="42.771" r="4.354" fill="#00df00"/><text font-size="10.667" y="45.874" x="23.543" font-family="sans-serif" word-spacing="0" letter-spacing="0"><tspan y="45.874" x="23.543" font-family="Roboto">[[Get]](String|Symbol, any): Object|Null</tspan></text></g><circle transform="translate(0 106.48)" cy="42.771" cx="14.855" r="4.354" fill="#00df00"/><text transform="translate(0 106.48)" font-size="10.667" y="45.874" x="23.543" font-family="sans-serif" word-spacing="0" letter-spacing="0"><tspan y="45.874" x="23.543" font-family="Roboto">[[GetOwnProperty]](String|Symbol): PropertyDescriptor</tspan></text><g transform="translate(0 124.35)"><circle cx="14.855" cy="42.771" r="4.354" fill="#00df00"/><text font-size="10.667" y="45.874" x="23.543" font-family="sans-serif" word-spacing="0" letter-spacing="0"><tspan y="45.874" x="23.543" font-family="Roboto">[[DefineOwnProperty]](String|Symbol, PropertyDescriptor): Boolean</tspan></text></g><g transform="translate(0 35.022)"><circle cy="42.771" cx="14.855" r="4.354" fill="#00df00"/><text font-size="10.667" y="45.874" x="23.543" font-family="sans-serif" word-spacing="0" letter-spacing="0"><tspan y="45.874" x="23.543" font-family="Roboto">[[GetPrototypeOf]](): Object|Null</tspan></text></g></g><text font-size="10.667" y="45.874" x="23.543" font-family="sans-serif" word-spacing="0" letter-spacing="0" transform="translate(875.35 545.36)"><tspan y="45.874" x="23.543" font-family="Roboto">[[Prototype]]: Object|Null</tspan></text><path fill="#ff0" d="M890.317 582.992l5.028 5.027-5.253 5.253-5.028-5.027z"/><text font-size="10.667" y="45.874" x="23.543" font-family="sans-serif" word-spacing="0" letter-spacing="0" transform="translate(875.35 563.021)"><tspan y="45.874" x="23.543" font-family="Roboto">[[Extensible]]: Boolean</tspan></text><path fill="#ff0" d="M890.317 600.653l5.028 5.027-5.253 5.253-5.028-5.027z"/><text transform="translate(900.006 551.14)" font-size="14.667" y="18.953" x="138.815" font-family="sans-serif" word-spacing="0" letter-spacing="0"><tspan font-weight="bold" y="18.953" x="138.815" font-family="Roboto">Array object</tspan></text><path d="M1030.166 558.136a6.356 6.356 0 0 0-6.357 6.357 6.356 6.356 0 0 0 6.357 6.356 6.356 6.356 0 0 0 6.356-6.356 6.356 6.356 0 0 0-6.356-6.357zm.541 2.033c.495 0 1.011.06 1.547.18s1.102.3 1.701.541v2.049h-.709c-.145-.7-.41-1.222-.793-1.569-.383-.35-.889-.525-1.517-.525-.812 0-1.415.3-1.809.898-.394.596-.592 1.513-.592 2.752 0 1.24.198 2.157.592 2.752.394.596 1.002.893 1.82.893.555 0 1.006-.154 1.356-.463.353-.309.611-.775.771-1.4h1.11c-.22.86-.615 1.497-1.184 1.914-.57.417-1.333.625-2.293.625-1.407 0-2.52-.386-3.338-1.16-.815-.778-1.223-1.832-1.223-3.16 0-1.333.408-2.385 1.223-3.159.819-.777 1.931-1.168 3.338-1.168z" fill="#00df00"/><path d="M874.85 928.839h392.63m-392.63-40.62h392.63M875.35 862.81h391.86v272.38H875.35z" stroke="#000" fill="#fef8c8"/><g transform="translate(875.35 864.983)"><g transform="translate(0 213.67)"><circle cx="14.855" cy="42.771" r="4.354" fill="#00df00"/><text font-size="10.667" y="45.874" x="23.543" font-family="sans-serif" word-spacing="0" letter-spacing="0"><tspan y="45.874" x="23.543" font-family="Roboto">[[OwnPropertyKeys]](): List&lt;String|Symbol&gt;</tspan></text></g><g transform="translate(0 88.616)"><circle cy="42.771" cx="14.855" r="4.354" fill="#00df00"/><text font-size="10.667" y="45.874" x="23.543" font-family="sans-serif" word-spacing="0" letter-spacing="0"><tspan y="45.874" x="23.543" font-family="Roboto">[[PreventExtensions]](): Boolean</tspan></text></g><g transform="translate(0 52.887)"><circle cx="14.855" cy="42.771" r="4.354" fill="#00df00"/><text font-size="10.667" y="45.874" x="23.543" font-family="sans-serif" word-spacing="0" letter-spacing="0"><tspan y="45.874" x="23.543" font-family="Roboto">[[SetPrototypeOf]](Object|Null): Boolean</tspan></text></g><g transform="translate(0 70.752)"><circle cy="42.771" cx="14.855" r="4.354" fill="#00df00"/><text font-size="10.667" y="45.874" x="23.543" font-family="sans-serif" word-spacing="0" letter-spacing="0"><tspan y="45.874" x="23.543" font-family="Roboto">[[IsExtensible]](): Boolean</tspan></text></g><g transform="translate(0 195.8)"><circle cx="14.855" cy="42.771" r="4.354" fill="#00df00"/><text font-size="10.667" y="45.874" x="23.543" font-family="sans-serif" word-spacing="0" letter-spacing="0"><tspan y="45.874" x="23.543" font-family="Roboto">[[Delete]](String|Symbol): Boolean</tspan></text></g><g transform="translate(0 177.94)"><circle cy="42.771" cx="14.855" r="4.354" fill="#00df00"/><text font-size="10.667" y="45.874" x="23.543" font-family="sans-serif" word-spacing="0" letter-spacing="0"><tspan y="45.874" x="23.543" font-family="Roboto">[[Set]](String|Symbol, any, any): Boolean</tspan></text></g><g transform="translate(0 142.21)"><circle cx="14.855" cy="42.771" r="4.354" fill="#00df00"/><text font-size="10.667" y="45.874" x="23.543" font-family="sans-serif" word-spacing="0" letter-spacing="0"><tspan y="45.874" x="23.543" font-family="Roboto">[[HasProperty]](String|Symbol): Boolean</tspan></text></g><g transform="translate(0 160.08)"><circle cy="42.771" cx="14.855" r="4.354" fill="#00df00"/><text font-size="10.667" y="45.874" x="23.543" font-family="sans-serif" word-spacing="0" letter-spacing="0"><tspan y="45.874" x="23.543" font-family="Roboto">[[Get]](String|Symbol, any): Object|Null</tspan></text></g><circle cx="14.855" transform="translate(0 106.48)" cy="42.771" r="4.354" fill="#00df00"/><text transform="translate(0 106.48)" font-size="10.667" y="45.874" x="23.543" font-family="sans-serif" word-spacing="0" letter-spacing="0"><tspan y="45.874" x="23.543" font-family="Roboto">[[GetOwnProperty]](String|Symbol): PropertyDescriptor</tspan></text><g transform="translate(0 124.35)"><circle cy="42.771" cx="14.855" r="4.354" fill="#00df00"/><text font-size="10.667" y="45.874" x="23.543" font-family="sans-serif" word-spacing="0" letter-spacing="0"><tspan y="45.874" x="23.543" font-family="Roboto">[[DefineOwnProperty]](String|Symbol, PropertyDescriptor): Boolean</tspan></text></g><g transform="translate(0 35.022)"><circle cx="14.855" cy="42.771" r="4.354" fill="#00df00"/><text font-size="10.667" y="45.874" x="23.543" font-family="sans-serif" word-spacing="0" letter-spacing="0"><tspan y="45.874" x="23.543" font-family="Roboto">[[GetPrototypeOf]](): Object|Null</tspan></text></g></g><text font-size="10.667" y="45.874" x="23.543" font-family="sans-serif" word-spacing="0" letter-spacing="0" transform="translate(875.35 857.03)"><tspan y="45.874" x="23.543" font-family="Roboto">[[ProxyHandler]]: Object|Null</tspan></text><path fill="#ff0" d="M890.317 894.662l5.028 5.027-5.253 5.253-5.028-5.027z"/><text font-size="10.667" y="45.874" x="23.543" font-family="sans-serif" word-spacing="0" letter-spacing="0" transform="translate(875.35 874.691)"><tspan y="45.874" x="23.543" font-family="Roboto">[[ProxyTarget]]: Object|Null</tspan></text><path fill="#ff0" d="M890.317 912.323l5.028 5.027-5.253 5.253-5.028-5.027z"/><text transform="translate(901.008 862.81)" font-size="14.667" y="18.953" x="138.815" font-family="sans-serif" word-spacing="0" letter-spacing="0"><tspan font-weight="bold" y="18.953" x="138.815" font-family="Roboto">Proxy object</tspan></text><path d="M1031.168 869.806a6.356 6.356 0 0 0-6.357 6.357 6.356 6.356 0 0 0 6.357 6.356 6.356 6.356 0 0 0 6.356-6.356 6.356 6.356 0 0 0-6.356-6.357zm.541 2.033c.495 0 1.011.06 1.547.18s1.102.3 1.701.541v2.049h-.709c-.145-.7-.41-1.222-.793-1.569-.383-.35-.889-.525-1.517-.525-.812 0-1.415.3-1.809.898-.394.596-.592 1.513-.592 2.752 0 1.24.198 2.157.592 2.752.394.596 1.002.893 1.82.893.555 0 1.006-.154 1.356-.463.353-.309.611-.775.771-1.4h1.11c-.22.86-.615 1.497-1.184 1.914-.57.417-1.333.625-2.293.625-1.407 0-2.52-.386-3.338-1.16-.815-.778-1.223-1.832-1.223-3.16 0-1.333.408-2.385 1.223-3.159.819-.777 1.931-1.168 3.338-1.168z" fill="#00df00"/><path d="M1039.44 1174.458h63.667v30.43h-63.667z" stroke="#000" fill="#fef8c8"/><text font-size="14.667" y="21.666" x="616.849" font-family="sans-serif" word-spacing="0" letter-spacing="0" transform="translate(448.09 1171.744)"><tspan font-weight="bold" y="21.666" x="616.849" font-family="Roboto">...</tspan></text><g stroke="#000" fill="none" marker-start="url(#a)" transform="translate(10.5 10.5)"><path d="M195.93 231.58v130.75" stroke-miterlimit="4.1"/><path d="M195.93 412.09v130.75"/><path d="M393.29 228.38L627.8 362.5"/><path d="M391.86 124.59l62.3 2.799"/><path d="M668.58 389.1l206.56 151.54"/><path d="M659.17 389.1l310.36 463.21"/><path d="M846.01 101.98l62.3-10.882"/><path d="M1213.2 39.905l89.235-14.381"/><path d="M1213.2 83.111l62.184 7.601"/><path d="M1206.1 128.95l119.5 53.011"/><path d="M261.27 542.84l1056.8-414.07"/><path d="M279.94 542.84l1020-310.83"/><path d="M262.59 362.33l645.72-240.96"/><path d="M657.02 389.1L1053 1164"/></g><path d="M964.35 204.042H1178m-213.4-25.418h213.2v50.048H964.6z" stroke="#000" stroke-width=".767" fill="#fef8c8"/><text transform="translate(906.86 178.656)" font-size="14.667" y="18.953" x="138.815" font-family="sans-serif" word-spacing="0" letter-spacing="0"><tspan font-weight="bold" y="18.953" x="138.815" font-family="Roboto">Set object</tspan></text><path d="M1037.02 185.652a6.356 6.356 0 0 0-6.357 6.358 6.356 6.356 0 0 0 6.357 6.355 6.356 6.356 0 0 0 6.356-6.355 6.356 6.356 0 0 0-6.356-6.358zm.541 2.033c.495 0 1.011.06 1.547.18s1.102.3 1.701.541v2.049h-.709c-.145-.7-.41-1.222-.793-1.569-.383-.35-.889-.525-1.517-.525-.812 0-1.415.3-1.809.898-.394.596-.592 1.513-.592 2.752 0 1.24.198 2.157.592 2.752.394.596 1.002.893 1.82.893.555 0 1.006-.154 1.356-.463.353-.309.611-.775.771-1.4h1.11c-.22.86-.615 1.497-1.184 1.914-.57.417-1.333.625-2.293.625-1.407 0-2.52-.386-3.338-1.16-.815-.778-1.223-1.832-1.223-3.16 0-1.333.408-2.385 1.223-3.159.819-.777 1.931-1.168 3.338-1.168z" fill="#00df00"/><text font-size="10.667" y="45.874" x="23.543" font-family="sans-serif" word-spacing="0" letter-spacing="0" transform="translate(963.55 174.865)"><tspan y="45.874" x="23.543" font-family="Roboto">[[SetData]]: List&lt;any&gt;</tspan></text><path fill="#ff0" d="M978.517 212.497l5.028 5.027-5.253 5.253-5.028-5.027z"/><path d="M1039.44 481.42h63.667v30.43h-63.667z" stroke="#000" fill="#fef8c8"/><text transform="translate(926.12 481.42)" font-size="14.667" y="18.953" x="138.815" font-family="sans-serif" word-spacing="0" letter-spacing="0"><tspan font-weight="bold" y="18.953" x="138.815" font-family="Roboto">...</tspan></text><path d="M964.35 293.15H1178m-213.4-25.418h213.2v50.048H964.6z" stroke="#000" stroke-width=".767" fill="#fef8c8"/><text transform="translate(903.32 267.764)" font-size="14.667" y="18.953" x="138.815" font-family="sans-serif" word-spacing="0" letter-spacing="0"><tspan font-weight="bold" y="18.953" x="138.815" font-family="Roboto">Map object</tspan></text><path d="M1033.48 274.76a6.356 6.356 0 0 0-6.357 6.358 6.356 6.356 0 0 0 6.357 6.355 6.356 6.356 0 0 0 6.356-6.356 6.356 6.356 0 0 0-6.356-6.357zm.541 2.033c.495 0 1.011.06 1.547.18s1.102.3 1.701.541v2.049h-.709c-.145-.7-.41-1.222-.793-1.569-.383-.35-.889-.525-1.517-.525-.812 0-1.415.3-1.809.898-.394.596-.592 1.513-.592 2.752 0 1.24.198 2.157.592 2.752.394.596 1.002.893 1.82.893.555 0 1.006-.154 1.356-.463.353-.309.611-.775.771-1.4h1.11c-.22.86-.615 1.497-1.184 1.914-.57.417-1.333.625-2.293.625-1.407 0-2.52-.386-3.338-1.16-.815-.778-1.223-1.832-1.223-3.16 0-1.333.408-2.385 1.223-3.159.819-.777 1.931-1.168 3.338-1.168z" fill="#00df00"/><text font-size="10.667" y="45.874" x="23.543" font-family="sans-serif" word-spacing="0" letter-spacing="0" transform="translate(963.55 263.973)"><tspan y="45.874" x="23.543" font-family="Roboto">[[MapData]]: List&lt;List&lt;any&gt;&gt;</tspan></text><path fill="#ff0" d="M978.517 301.605l5.028 5.027-5.253 5.253-5.028-5.027z"/><path d="M964.35 382.26H1178m-213.4-25.418h213.2v85.398H964.6z" stroke="#000" stroke-width=".767" fill="#fef8c8"/><text transform="translate(890.36 356.874)" font-size="14.667" y="18.953" x="138.815" font-family="sans-serif" word-spacing="0" letter-spacing="0"><tspan font-weight="bold" y="18.953" x="138.815" font-family="Roboto">Promise object</tspan></text><path d="M1020.52 363.87a6.356 6.356 0 0 0-6.357 6.358 6.356 6.356 0 0 0 6.357 6.355 6.356 6.356 0 0 0 6.356-6.356 6.356 6.356 0 0 0-6.356-6.357zm.541 2.033c.495 0 1.011.06 1.547.18s1.102.3 1.701.541v2.049h-.709c-.145-.7-.41-1.222-.793-1.569-.383-.35-.889-.525-1.517-.525-.812 0-1.415.3-1.809.898-.394.596-.592 1.513-.592 2.752 0 1.24.198 2.157.592 2.752.394.596 1.002.893 1.82.893.555 0 1.006-.154 1.356-.463.353-.309.611-.775.771-1.4h1.11c-.22.86-.615 1.497-1.184 1.914-.57.417-1.333.625-2.293.625-1.407 0-2.52-.386-3.338-1.16-.815-.778-1.223-1.832-1.223-3.16 0-1.333.408-2.385 1.223-3.159.819-.777 1.931-1.168 3.338-1.168z" fill="#00df00"/><text font-size="10.667" y="45.874" x="23.543" font-family="sans-serif" word-spacing="0" letter-spacing="0" transform="translate(963.55 353.08)"><tspan y="45.874" x="23.543" font-family="Roboto">[[PromiseState]]: String</tspan></text><path fill="#ff0" d="M978.517 390.712l5.028 5.027-5.253 5.253-5.028-5.027z"/><text font-size="10.667" y="45.874" x="23.543" font-family="sans-serif" word-spacing="0" letter-spacing="0" transform="translate(963.55 370.349)"><tspan y="45.874" x="23.543" font-family="Roboto">[[PromiseResult]]: any|empty</tspan></text><path fill="#ff0" d="M978.517 407.98l5.028 5.028-5.253 5.253-5.028-5.027z"/><text font-size="10.667" y="45.874" x="23.543" font-family="sans-serif" word-spacing="0" letter-spacing="0" transform="translate(963.55 387.795)"><tspan y="45.874" x="23.543" font-family="Roboto">[[...]]: ...</tspan></text><path fill="#ff0" d="M978.517 425.427l5.028 5.027-5.253 5.253-5.028-5.027z"/><g stroke="#000" fill="none" marker-start="url(#a)" transform="translate(10.5 10.5)"><path d="M846.01 163.36l108.16 15.002"/><path d="M846.01 205.88l144.4 51.359"/><path d="M846.01 256.82l145.41 89.527"/><path d="M809.92 272.38l232.98 198.54"/></g></svg>
